<?xml version="1.0" encoding="UTF-8"?>
<svg id="_レイヤー_1" data-name="レイヤー_1" xmlns="http://www.w3.org/2000/svg" version="1.1" viewBox="0 0 510.24 510.24">
  <!-- Generator: Adobe Illustrator 29.1.0, SVG Export Plug-In . SVG Version: 2.1.0 Build 142)  -->
  <defs>
    <style>
      .st0 {
        fill: #fff;
      }

      .st1 {
        fill: #ed891d;
      }
    </style>
  </defs>
  <circle class="st1" cx="255.12" cy="255.12" r="252.28"/>
  <path class="st0" d="M405.12,386.67c-.98,1.97-1.97,3.93-2.62,5.9-.66,8.19-4.59,9.83-11.14,5.24-2.62-2.29-5.24-4.26-7.86-5.9l-5.9-2.62c-1.97-.98-3.93-.98-5.57.33-.98.33-1.64.33-2.29-.33,0-.66.33-.98.66-1.64,2.29-1.97,2.29-4.26,0-6.55-1.64-1.31-2.29-3.28-2.62-5.57.33-1.97.98-3.6,2.62-5.24,0-.66.33-.98.66-1.64-3.28-2.62-6.88-3.93-10.81-4.59,0,.66-.66.66-1.31.66-1.97-1.64-3.6-2.95-5.57-3.93s-3.6-2.62-4.92-4.92c.33-.66.33-.98.33-1.64.66.33,1.31.33,1.64,0,1.31-.33,2.62-.98,3.93-1.97-.33-.98-.66-1.64-1.31-1.97-4.26-2.95-8.85-5.57-13.43-7.86l-1.31.66c-.33.33-.98.33-1.31.33-2.62-3.28-5.9-3.6-9.83-.98-12.78,4.59-25.56,7.54-38.99,8.19-11.47,1.64-22.61.33-33.42-3.93-3.93-1.64-6.23-.66-7.21,3.6-2.95,9.5-5.9,19-8.19,28.83,0,1.31-.33,2.29-.66,3.6-.98,4.91,1.31,7.21,6.55,6.55.33-.66.66-.66,1.64-.66,0,.66-.33,1.31-.66,1.97,0,1.64.33,3.6.98,5.57,1.31,4.91-.66,6.55-5.24,5.9-1.31-.33-2.95-.66-4.59-.98-5.9-2.29-8.19-6.88-6.23-13.11,3.28-11.47,6.88-23.26,10.48-34.73,1.31-3.28,2.62-6.88,3.6-10.48,0-3.28-.66-6.55-1.97-9.83-.66-.33-1.31-.66-2.29-.33-12.12,8.19-23.92,16.71-35.39,25.56-6.55,5.9-13.11,11.79-19.33,18.35-2.62,2.29-5.9,3.6-9.5,3.6-6.23,0-11.47-1.97-15.4-6.22l-9.83-9.83c-.98-1.31-.98-2.95-.33-4.26,2.62-4.59,5.24-8.85,7.86-13.11,3.93-5.9,8.85-10.16,14.74-13.11,2.29-.66,3.28-1.64,3.6-3.6.33-2.29.33-4.26,0-6.23-.33-11.47-.98-22.61-1.97-34.08-.98-4.59-1.97-8.85-3.28-13.43-.66-2.29-1.97-2.62-3.28-.33-3.6,5.9-6.88,11.47-10.48,17.37-2.95,6.55-6.23,12.78-10.16,19-2.62,4.26-4.26,8.85-5.57,13.43-.66,3.6-2.95,4.91-6.88,3.93-2.29-.98-4.59-1.64-7.21-2.29-3.93-1.31-6.23-3.93-6.55-7.86-.66-5.9.33-11.47,2.62-16.71,2.62-5.24,5.57-10.16,8.85-15.07,2.95-4.59,6.55-9.17,10.49-13.11.66-.33.98-.98,1.64-1.31v2.29c-1.31,1.64-2.29,3.28-2.95,5.9-.66,1.64-.98,3.6-.98,5.57.98,4.26,2.95,4.59,5.57,1.64,3.6-3.28,6.88-7.21,9.17-11.14,5.57-12.45,11.47-24.57,17.37-36.37,8.85-19,15.4-38.66,20.31-58.98,1.97-10.16,3.93-20.64,5.9-31.13.98-2.29,0-3.6-2.62-3.6-1.31-.66-2.29-1.97-2.29-3.28,0-2.29.66-3.93,1.97-5.57,7.21-5.57,14.42-10.81,21.62-16.38h2.62c3.28,1.64,6.55,3.6,9.83,5.9,7.54,4.91,8.52,11.14,3.6,18.35-1.97,3.28-3.6,6.23-5.24,9.17v1.31h1.64c2.29-.33,4.59-.66,6.55-.98.66,0,.98,0,.98.66,2.95-1.64,5.9-1.64,8.52,0,2.62,1.97,4.92,3.28,7.54,4.59,6.88,2.95,12.12,7.54,15.4,14.09.98.98,1.31,1.97,1.64,3.28.33,1.64.33,3.6,0,5.57s-.98,3.28-2.62,3.93c-1.64.98-3.28,1.31-5.24,1.64h-5.24c-4.59.33-8.52-1.31-11.14-4.92-1.97-1.97-4.26-3.28-7.21-4.26-1.97-.33-3.93.33-5.9,1.64-1.97,1.97-3.93,4.26-5.9,6.55-.66.66-1.31,1.31-2.62,1.31.33-.66.33-1.31.33-2.29.98-1.31,1.64-2.62,2.62-3.93.33-.98.98-1.97,1.64-2.95.98-.66.98-1.64.33-2.62-.33-.98-1.31-1.64-2.29-1.97-.66-1.31-.98-2.62-1.31-4.59,0-.98-.66-1.64-1.97-1.97-.66.33-.98.98-1.64,1.64-3.28,7.21-6.23,14.42-9.17,21.62-.33.66-.33,1.64,0,2.62.66-.66,1.31-.98,1.97-.98h.66c1.64-.33,3.6-.98,5.24-1.31,1.97-.66,3.6-.66,5.24-.33,3.28,1.64,6.23,3.6,8.52,6.23,2.62,2.29,4.26,5.24,4.92,8.52.33,2.29-.66,4.26-2.29,5.57-1.97,1.31-3.93,1.64-5.9,1.31-3.28-.33-6.55-.66-9.5-.66-2.62.66-4.91,1.64-7.21,2.95-2.62,2.29-5.57,4.92-7.86,7.54-.66.66-1.31.98-1.97,1.64v-2.62c1.97-3.6,3.28-7.54,4.26-11.47.33-1.31,0-1.97-.66-2.95-.98,0-1.97.33-2.62,1.31-4.92,9.17-9.5,18.68-13.76,28.18-.33.66-.33,1.31-.33,2.29.66-.66.98-1.31,1.64-1.31.66-.66,1.31-1.31,1.31-1.97l3.93-3.28c0,1.64,0,3.28-.33,5.24,0,1.64-.33,3.28-.66,5.24,1.64-.98,2.95-2.29,4.26-3.28,6.88-4.92,13.76-10.16,20.31-15.07,3.6-2.62,7.54-3.6,11.8-2.95,12.78,1.64,22.28,8.52,28.18,20.31.66,2.29.66,4.26.33,6.23-.66,1.97-1.31,3.93-1.31,5.57,0,1.31-.33,2.62-.33,3.93,0,.98-.33,1.97-.33,2.95-.33.66-.33,1.64.33,2.62,4.59,1.97,8.19.98,11.14-2.95,3.28-9.5,6.88-19,10.16-28.51l1.31-2.62c4.92-12.12,9.83-24.9,15.07-37.35.33-.98,0-1.97-.98-2.62-3.28-.98-6.55-2.29-9.5-3.93-3.93-1.97-7.54-4.26-11.14-7.21-2.62-2.29-2.62-4.59,0-6.88,6.55-5.57,13.11-11.47,19.66-17.04,6.88-5.24,13.76-10.48,20.97-15.73,5.9-2.95,11.8-6.23,17.69-9.83,3.93-3.28,8.19-4.26,12.45-3.28,4.59.98,8.19,3.28,11.14,6.55,8.85,4.92,15.07,12.12,19,21.3.98,3.28,1.64,6.55,1.97,9.83-.33,1.31-.98,2.62-1.97,3.6-6.23,1.31-11.14,4.91-15.07,10.16-2.62,3.6-5.57,6.23-9.5,8.19-3.6,1.97-7.21,4.26-10.48,6.23-6.88,4.59-13.11,9.83-19,15.73-2.95,2.62-5.57,5.9-7.86,8.85-.66.66-.98.98-.98,1.64.66.33.98,0,1.64-.66,3.93-3.28,7.86-6.55,11.79-9.83,3.28-2.29,7.21-3.93,11.14-5.24,2.95,0,5.9.33,8.52,1.64,5.57,3.93,10.49,7.86,15.73,11.8,6.55,5.57,10.48,12.45,11.79,20.64.66,2.29.33,4.26-.33,6.23-3.28,16.05-6.88,32.11-10.49,48.16-.98,4.92-2.29,10.16-4.26,15.07-1.64,4.91-4.26,9.5-7.54,13.76-.98.98-1.31,1.97-.66,3.28.98,1.31,1.64,2.29,2.62,3.28.66.98,1.64,1.64,2.62,2.29s.98,1.64.66,3.28c.98,1.31,2.62,2.95,4.26,4.26,1.64.98,3.6,2.29,5.57,2.95,1.97,1.97,4.26,3.28,6.22,4.91,1.97,1.64,3.6,2.95,5.24,4.26.98,1.31,1.64,2.62,2.62,3.93.66,1.64,1.31,2.95,2.62,4.26.66.98,1.31,1.97,1.97,2.95-.98-.33-2.29-.33-3.6-.33-.66-.33-1.31-.98-1.97-1.97,0,.98.33,1.97,1.31,2.62,2.29,2.29,4.59,4.59,7.21,6.55.33.33.66.33,1.31.33,1.64-1.64,2.62-1.31,2.95,1.31,3.6,4.59,7.21,9.17,10.49,13.76.33,1.31,0,2.62-.66,3.93ZM236.05,324.74c-4.26-1.64-8.52-3.6-12.78-4.92-.66-.66-.98-.98-.98-1.64,3.6-4.26,6.88-8.52,10.48-13.11v-2.62c-2.29-1.97-3.93-1.64-5.57.33-1.31,1.97-2.95,3.28-4.91,3.93-6.88,1.97-10.48,6.55-11.8,13.43,0,.98,0,2.29-.33,3.6,0,.98-.33,1.97-.98,2.62-2.29,2.62-4.59,4.91-7.21,7.21-.33,1.31-1.31,2.62-2.95,3.6-5.9,2.62-10.48,7.21-13.43,13.43.66,2.29,1.31,4.26,2.62,5.9.98-.33,1.64-.66,2.62-.98,16.71-6.23,32.11-14.42,46.2-24.9,2.62-2.29,2.29-4.26-.98-5.9ZM189.85,301.81c0,1.64.33,2.95.66,4.59,1.31-.98,2.29-1.64,3.6-1.97,0-.33.66-.66,1.64-.98,9.83-5.24,19.66-10.49,29.49-15.73,1.64-.66,2.62-1.97,2.62-3.93.66-7.21,1.31-14.42,1.64-21.62-.66-4.59-.98-9.17-.98-13.76-.66-2.62-1.97-3.28-4.26-1.97-2.95,2.29-5.9,5.24-8.19,8.52-2.62,2.95-4.91,6.55-6.23,10.81-1.64,1.31-1.31,2.62.33,3.28,3.93,1.64,7.21,3.6,10.48,5.9,1.97,1.97,2.62,4.26,2.62,6.88-.33.98-1.31,2.29-2.29,3.28-.98,1.31-2.29,1.97-3.6,1.97-6.23,0-10.48,2.95-12.45,8.52l-.98.98v-1.64c.33-1.31.33-2.29.66-2.95-.33-.98-.66-1.64-1.31-2.29-3.28,1.64-5.24.66-5.24-3.6-.66-2.29-.98-4.59-.98-6.88-.33-.98-.66-1.64-.98-2.62-.98.33-2.29.66-3.6,1.31-1.31,1.97-1.97,3.93-1.97,5.9-.33,6.23-.66,12.12-.66,18.02ZM253.41,310c.98-1.31,1.31-2.95,1.31-4.91-1.31.66-2.29,1.97-3.28,3.28-.33,0-.66.66-1.31,1.31.66.33,1.31.98,2.29,1.31.66,0,.98-.33.98-.98ZM255.05,304.43c2.95-6.55,5.57-12.78,7.86-19.66,0-.66-.33-1.64-.98-1.97-.66-.66-1.31-1.31-1.64-1.97-.66.66-.98,1.64-1.31,2.62-1.31,6.88-2.62,13.76-3.93,20.97ZM283.56,315.9c3.28-2.29,6.55-4.26,9.5-6.55.33-.66.33-1.64.33-2.62-2.29-1.97-4.59-3.93-7.21-5.9-4.59-3.28-9.17-6.23-13.76-9.5-2.29-1.64-3.6-1.31-4.59,1.64-2.62,6.23-5.24,12.78-7.86,19.33-.33,1.31,0,2.62,1.31,3.6,3.6.98,7.21,1.97,11.14,2.62,3.93.33,7.86-.66,11.14-2.62ZM322.22,339.81c-.66-.66-1.64-.98-2.95-1.64-3.6,1.31-7.54,2.62-11.47,3.6l-22.94,6.55c-.66,0-1.64.33-2.62.98h2.62c2.29-.66,4.59-.98,6.88-.98,9.18-2.29,18.68-4.59,27.85-6.88,1.31-.33,1.97-.98,2.62-1.64ZM321.89,265.44c1.64-6.88,2.95-13.76,4.26-20.64-1.64-2.62-3.28-5.24-5.57-7.21-1.97-.66-3.93-.33-5.57.66-1.97.98-3.93,2.29-5.57,3.93-2.29,1.31-4.59,2.95-6.88,4.26.66-2.62,1.97-5.24,2.95-7.86,2.62-3.6,4.92-7.21,7.54-10.48l.66-4.59c-1.31.66-2.29,1.64-3.28,2.95-1.31,1.64-2.29,3.28-3.28,5.24-7.54,10.16-15.4,19.99-22.94,29.49-1.97,2.62-1.64,4.92.98,7.21,4.59,3.6,9.17,7.54,13.76,11.47,2.62,2.62,5.9,4.59,8.85,6.55,2.62,1.64,4.59,1.31,6.22-1.64,3.93-5.9,6.55-12.45,7.86-19.33ZM292.4,337.52c-2.29.66-4.59.98-6.55,1.64-.98.98-1.64,1.97-2.29,2.62.66.66,1.64.98,2.62.98,2.62-.33,5.24-.98,7.54-1.97l1.31-.66c0-.66-.33-1.64-.98-2.62h-1.64Z"/>
  <g>
    <path class="st0" d="M135.94,178.12l-.18,2.83c0,3.84,2.06,5.75,6.2,5.75,3.42,0,6.87-1.18,10.36-3.54,3.48-2.36,5.22-4.75,5.22-7.17s-1.42-4.46-4.25-6.11c-1.89-1.12-4.84-1.68-8.85-1.68-5.96,0-12.61,1.42-19.96,4.25-7.35,2.83-14.24,7.38-20.67,13.63-8.44,8.26-12.66,15.84-12.66,22.75,0,4.07,1.55,7.35,4.65,9.83s7.15,3.72,12.17,3.72c6.96,0,15.05-2.62,24.25-7.88,7.67-4.31,13.42-8.88,17.26-13.72l2.57-3.81c-1.06,0-5.46.31-13.19.93-7.73.62-12.16,1.06-13.28,1.33-1.12.27-2.04.4-2.74.4-1.95,0-2.92-.47-2.92-1.42,0-1.47,2.24-2.7,6.73-3.67,4.48-.97,12.07-1.46,22.75-1.46s17.73.41,21.16,1.24c.53.12.8.27.8.44,0,.65-2.04,1.12-6.11,1.42-5.08.41-7.67.62-7.79.62-6.02,7.91-13.81,20.12-23.37,36.65-.53.94-1.05,1.42-1.55,1.42s-.75-.38-.75-1.15c0-2.07,1.65-6.05,4.96-11.95l6.2-11.6c-3.78,3.25-8.59,6.28-14.43,9.12-7.61,3.6-14.8,5.4-21.55,5.4s-11.92-1.46-15.49-4.38c-3.57-2.92-5.35-6.83-5.35-11.73,0-9.03,5.46-18.2,16.38-27.53,5.49-4.72,12.13-8.64,19.92-11.77,7.79-3.13,14.62-4.69,20.49-4.69s10.37,1.15,13.5,3.45c2.42,1.89,3.63,4.01,3.63,6.37,0,3.36-2.08,6.59-6.24,9.69-4.16,3.1-8.28,4.65-12.35,4.65-5.49,0-8.23-3.16-8.23-9.47,0-2.42.5-3.63,1.5-3.63.83,0,1.24.83,1.24,2.48Z"/>
    <path class="st0" d="M183.82,202.46c0,2.07-1.98,5.52-5.93,10.36-4.66,5.72-8.65,8.59-11.95,8.59h-1.42c-1.54,0-2.74-.8-3.63-2.39-.71-1.12-1.06-2.36-1.06-3.72,0-3.54,2.58-8.51,7.75-14.92,5.16-6.4,9.34-9.6,12.53-9.6,3.01,0,4.51,1.59,4.51,4.78,0,.83-.15,1.89-.44,3.19.06.18.62.27,1.68.27s2.68-.56,4.87-1.68c-.06,1-2.39,2.45-6.99,4.34.06.24.09.5.09.8ZM178.07,197.86c-2.01,0-4.85,2.36-8.54,7.08-3.69,4.72-5.53,8.2-5.53,10.44s.71,3.36,2.12,3.36c2.54,0,5.75-2.3,9.65-6.9s5.84-7.91,5.84-9.91c-.94-.53-2.12-1.89-3.54-4.07Z"/>
  </g>
</svg>